<?xml version="1.0" encoding="utf-8"?>
<!-- Generator: Adobe Illustrator 21.1.0, SVG Export Plug-In . SVG Version: 6.00 Build 0)  -->
<svg version="1.1"
	 id="svg1920" inkscape:output_extension="org.inkscape.output.svg.inkscape" inkscape:version="0.45" sodipodi:docbase="D:\tmp" sodipodi:docname="Pakua_with_name.svg" sodipodi:modified="true" sodipodi:version="0.32" xmlns:cc="http://web.resource.org/cc/" xmlns:dc="http://purl.org/dc/elements/1.1/" xmlns:inkscape="http://www.inkscape.org/namespaces/inkscape" xmlns:rdf="http://www.w3.org/1999/02/22-rdf-syntax-ns#" xmlns:sodipodi="http://sodipodi.sourceforge.net/DTD/sodipodi-0.dtd" xmlns:svg="http://www.w3.org/2000/svg"
	 xmlns="http://www.w3.org/2000/svg" xmlns:xlink="http://www.w3.org/1999/xlink" x="0px" y="0px" viewBox="0 0 473.2 473.2"
	 style="enable-background:new 0 0 473.2 473.2;" xml:space="preserve">
<style type="text/css">
	.st0{fill:none;stroke:#000000;}
</style>
<sodipodi:namedview  bordercolor="#666666" borderopacity="1.0" gridtolerance="10.0" guidetolerance="10.0" height="473.239px" id="base" inkscape:current-layer="svg1920" inkscape:cx="236.62" inkscape:cy="236.61951" inkscape:guide-bbox="true" inkscape:pageopacity="0.0" inkscape:pageshadow="2" inkscape:window-height="746" inkscape:window-width="1024" inkscape:window-x="0" inkscape:window-y="0" inkscape:zoom="0.41090096" objecttolerance="10.0" pagecolor="#ffffff" showguides="true" width="473.24px">
	</sodipodi:namedview>
<path id="rect1929" sodipodi:nodetypes="ccccc" class="st0" d="M158.7,24.7h154.4l-8.6,20H166.9L158.7,24.7z"/>
<path id="path7251" sodipodi:nodetypes="ccccc" class="st0" d="M173,58.8l55-0.1V79h-46.1L173,58.8z"/>
<path id="path10798" sodipodi:nodetypes="ccccc" class="st0" d="M298.8,58.9L244,58.8v20.3h46.1L298.8,58.9z"/>
<path id="path12570" sodipodi:nodetypes="ccccc" class="st0" d="M188.5,94.8h94.8l-8.9,20.5h-77.5L188.5,94.8z"/>
<path id="path19680" sodipodi:nodetypes="ccccc" class="st0" d="M31.2,140.7L140.4,31.6l8,20.2L51.2,149L31.2,140.7z"/>
<path id="path19694" sodipodi:nodetypes="ccccc" class="st0" d="M102,168.6l27.4-27.4l14.9,15l-21.1,21.1L102,168.6z"/>
<path id="path19696" sodipodi:nodetypes="ccccc" class="st0" d="M168.5,102.5l-27.4,27.4l15,14.9l21.1-21.1L168.5,102.5z"/>
<path id="path19698" sodipodi:nodetypes="ccccc" class="st0" d="M66.2,154.2l87.9-87.6l8.2,20l-75.9,75.9L66.2,154.2z"/>
<path id="path19702" sodipodi:nodetypes="ccccc" class="st0" d="M23.1,160.2v69.4l20-0.3v-60.8L23.1,160.2z"/>
<path id="path19704" sodipodi:nodetypes="ccccc" class="st0" d="M22.8,315.2v-69.4l20,0.3V307L22.8,315.2z"/>
<path id="path19710" sodipodi:nodetypes="ccccc" class="st0" d="M57.8,174.8l-0.1,55H78v-46.1L57.8,174.8z"/>
<path id="path19712" sodipodi:nodetypes="ccccc" class="st0" d="M57.8,300.6l-0.1-54.8H78V292L57.8,300.6z"/>
<path id="path19714" sodipodi:nodetypes="ccccc" class="st0" d="M93.7,190.3v94.8l20.5-8.9v-77.5L93.7,190.3z"/>
<path id="path19716" sodipodi:nodetypes="ccccc" class="st0" d="M141.2,439L32,329.8l20.2-8l97.3,97.3L141.2,439z"/>
<path id="path19720" sodipodi:nodetypes="ccccc" class="st0" d="M155.2,404.7l-39-38.9l14.4-14.4l32.6,32.6L155.2,404.7z"/>
<path id="path19722" sodipodi:nodetypes="ccccc" class="st0" d="M66.3,315.8l38.7,38.8l14.4-14.4l-32.6-32.6L66.3,315.8z"/>
<path id="path19735" sodipodi:nodetypes="ccccc" class="st0" d="M168.7,368.6l-27.4-27.4l15-14.9l21.1,21.1L168.7,368.6z"/>
<path id="path19737" sodipodi:nodetypes="ccccc" class="st0" d="M102.6,302.1l27.4,27.4l14.9-15l-21.1-21.1L102.6,302.1z"/>
<path id="path19757" sodipodi:nodetypes="ccccc" class="st0" d="M189,378.4h38.7v-21.2h-29.8L189,378.4z"/>
<path id="path19759" sodipodi:nodetypes="ccccc" class="st0" d="M282.7,378.1H244v-21.2h29.8L282.7,378.1z"/>
<path id="path19763" sodipodi:nodetypes="ccccc" class="st0" d="M158.4,448.2h69.4l-0.3-20h-60.8L158.4,448.2z"/>
<path id="path19765" sodipodi:nodetypes="ccccc" class="st0" d="M313.4,448.5H244l0.3-20h60.8L313.4,448.5z"/>
<path id="path19767" sodipodi:nodetypes="ccccc" class="st0" d="M173.8,413.8l124.1-0.2l-8.4-19.9H182.2L173.8,413.8z"/>
<path id="path19781" sodipodi:nodetypes="ccccc" class="st0" d="M441,332.2L331.8,441.4l-8-20.2l97.3-97.3L441,332.2z"/>
<path id="path19783" sodipodi:nodetypes="ccccc" class="st0" d="M370.4,303.7l-67.1,67.1l-8.2-20.8l54.8-54.8L370.4,303.7z"/>
<path id="path19785" sodipodi:nodetypes="ccccc" class="st0" d="M405.9,318.5L318,406.1l-8.2-20l75.9-75.9L405.9,318.5z"/>
<path id="path19808" sodipodi:nodetypes="ccccc" class="st0" d="M380.2,285.1v-94.8l-20.5,8.9v77.5L380.2,285.1z"/>
<path id="path19812" sodipodi:nodetypes="ccccc" class="st0" d="M450.1,315.2v-69.4l-20,0.3V307L450.1,315.2z"/>
<path id="path19814" sodipodi:nodetypes="ccccc" class="st0" d="M450.5,160.2v69.4l-20-0.3v-60.8L450.5,160.2z"/>
<path id="path19816" sodipodi:nodetypes="ccccc" class="st0" d="M415.8,299.8l-0.2-124.1l-19.9,8.4v107.4L415.8,299.8z"/>
<path id="path19844" sodipodi:nodetypes="ccccc" class="st0" d="M316.7,65.4l39,38.9l-14.4,14.4l-32.6-32.6L316.7,65.4z"/>
<path id="path19846" sodipodi:nodetypes="ccccc" class="st0" d="M405.6,154.3l-38.7-38.8L352.6,130l32.6,32.6L405.6,154.3z"/>
<path id="path19852" sodipodi:nodetypes="ccccc" class="st0" d="M303.2,101.5l27.4,27.4l-15,14.9l-21.1-21.1L303.2,101.5z"/>
<path id="path19854" sodipodi:nodetypes="ccccc" class="st0" d="M369.3,168l-27.4-27.4l-14.9,15l21.1,21.1L369.3,168z"/>
<path id="path19858" sodipodi:nodetypes="ccccc" class="st0" d="M330.4,31l49.1,49.1L365.1,94l-43-43L330.4,31z"/>
<path id="path19860" sodipodi:nodetypes="ccccc" class="st0" d="M440.2,140.4l-49.1-49.1l-13.9,14.4l43,43L440.2,140.4z"/>
</svg>
